<?xml version="1.0" encoding="UTF-8" standalone="no"?>
<!-- Created with Inkscape (http://www.inkscape.org/) -->

<svg
   version="1.1"
   id="svg1"
   width="2816"
   height="1536"
   viewBox="0 0 2816 1536"
   sodipodi:docname="logo.svg"
   inkscape:version="1.4.2 (f4327f4, 2025-05-13)"
   xmlns:inkscape="http://www.inkscape.org/namespaces/inkscape"
   xmlns:sodipodi="http://sodipodi.sourceforge.net/DTD/sodipodi-0.dtd"
   xmlns="http://www.w3.org/2000/svg"
   xmlns:svg="http://www.w3.org/2000/svg">
  <defs
     id="defs1" />
  <sodipodi:namedview
     id="namedview1"
     pagecolor="#ffffff"
     bordercolor="#000000"
     borderopacity="0.25"
     inkscape:showpageshadow="2"
     inkscape:pageopacity="0.0"
     inkscape:pagecheckerboard="0"
     inkscape:deskcolor="#d1d1d1"
     showgrid="false"
     inkscape:zoom="0.67471591"
     inkscape:cx="1408"
     inkscape:cy="768.47158"
     inkscape:window-width="2560"
     inkscape:window-height="1369"
     inkscape:window-x="4472"
     inkscape:window-y="-8"
     inkscape:window-maximized="1"
     inkscape:current-layer="g1" />
  <g
     inkscape:groupmode="layer"
     inkscape:label="Image"
     id="g1">
    <g
       id="g2">
      <path
         style="fill:#05def8"
         d="m 1161.25,1377.2837 c 1.5125,-0.2291 3.9875,-0.2291 5.5,0 1.5125,0.2292 0.275,0.4166 -2.75,0.4166 -3.025,0 -4.2625,-0.1874 -2.75,-0.4166 z m 288.5625,0.033 c 0.7219,-0.2889 1.5844,-0.2534 1.9167,0.079 0.3323,0.3323 -0.2584,0.5687 -1.3125,0.5253 -1.165,-0.048 -1.4019,-0.285 -0.6042,-0.6042 z m 68,0 c 0.7219,-0.2889 1.5844,-0.2534 1.9167,0.079 0.3323,0.3323 -0.2584,0.5687 -1.3125,0.5253 -1.165,-0.048 -1.4019,-0.285 -0.6042,-0.6042 z m 4,0 c 0.7219,-0.2889 1.5844,-0.2534 1.9167,0.079 0.3323,0.3323 -0.2584,0.5687 -1.3125,0.5253 -1.165,-0.048 -1.4019,-0.285 -0.6042,-0.6042 z m 61.4375,-0.01 c 0.9625,-0.2516 2.5375,-0.2516 3.5,0 0.9625,0.2515 0.175,0.4573 -1.75,0.4573 -1.925,0 -2.7125,-0.2058 -1.75,-0.4573 z m 314.6709,-3.0616 c 0.4778,-3.4512 0.5476,-3.5209 0.8773,-0.8773 0.197,1.5795 -0.037,3.2666 -0.5191,3.7491 -0.503,0.503 -0.6558,-0.7221 -0.3582,-2.8718 z m 154.8291,3.0886 c 0.6875,-0.2774 1.8125,-0.2774 2.5,0 0.6875,0.2774 0.125,0.5044 -1.25,0.5044 -1.375,0 -1.9375,-0.227 -1.25,-0.5044 z m 5.519,-0.031 c 0.973,-0.2535 2.323,-0.2369 3,0.037 0.6771,0.2739 -0.119,0.4813 -1.769,0.461 -1.65,-0.02 -2.2039,-0.2445 -1.231,-0.4981 z m 36.981,0 c 0.9625,-0.2516 2.5375,-0.2516 3.5,0 0.9625,0.2515 0.175,0.4573 -1.75,0.4573 -1.925,0 -2.7125,-0.2058 -1.75,-0.4573 z m 56.5,0.027 c 0.6875,-0.2774 1.8125,-0.2774 2.5,0 0.6875,0.2774 0.125,0.5044 -1.25,0.5044 -1.375,0 -1.9375,-0.227 -1.25,-0.5044 z m 257.0625,-0.021 c 0.7219,-0.2889 1.5844,-0.2534 1.9167,0.079 0.3323,0.3323 -0.2584,0.5687 -1.3125,0.5253 -1.165,-0.048 -1.4019,-0.285 -0.6042,-0.6042 z m 5,0 c 0.7219,-0.2889 1.5844,-0.2534 1.9167,0.079 0.3323,0.3323 -0.2584,0.5687 -1.3125,0.5253 -1.165,-0.048 -1.4019,-0.285 -0.6042,-0.6042 z m -804.7336,-3.9002 c 0.048,-1.165 0.285,-1.4019 0.6042,-0.6042 0.2889,0.7219 0.2534,1.5844 -0.079,1.9167 -0.3323,0.3323 -0.5687,-0.2584 -0.5253,-1.3125 z m 384.231,-3.9167 c 0.01,-3.3 0.1923,-4.5294 0.4148,-2.7321 0.2226,1.7974 0.218,4.4974 -0.01,6 -0.2281,1.5027 -0.4102,0.032 -0.4046,-3.2679 z m 170.885,2 c 0.02,-1.65 0.2445,-2.2039 0.4981,-1.231 0.2535,0.973 0.2369,2.323 -0.037,3 -0.2739,0.6771 -0.4813,-0.119 -0.461,-1.769 z M 1898.3917,1356 c 0,-7.425 0.1574,-10.4625 0.3499,-6.75 0.1924,3.7125 0.1924,9.7875 0,13.5 -0.1925,3.7125 -0.3499,0.675 -0.3499,-6.75 z m 94.6872,5.4167 c 0.048,-1.165 0.285,-1.4019 0.6042,-0.6042 0.2889,0.7219 0.2534,1.5844 -0.079,1.9167 -0.3323,0.3323 -0.5687,-0.2584 -0.5253,-1.3125 z M 1380.232,1351 c 0,-1.925 0.2058,-2.7125 0.4573,-1.75 0.2516,0.9625 0.2516,2.5375 0,3.5 -0.2515,0.9625 -0.4573,0.175 -0.4573,-1.75 z m 829.4957,-3.7217 c 1.7752,-0.2209 4.9252,-0.2246 7,-0.01 2.0748,0.2165 0.6223,0.3972 -3.2277,0.4017 -3.85,0 -5.5475,-0.1727 -3.7723,-0.3936 z m 12.0848,0.039 c 0.7219,-0.2889 1.5844,-0.2534 1.9167,0.079 0.3323,0.3323 -0.2584,0.5687 -1.3125,0.5253 -1.165,-0.048 -1.4019,-0.285 -0.6042,-0.6042 z M 2088.2522,1337.5 c 0.011,-2.2 0.2159,-2.9823 0.4551,-1.7383 0.2392,1.2439 0.2301,3.0439 -0.02,4 -0.2503,0.956 -0.446,-0.062 -0.4349,-2.2617 z M 425.25,1338.2715 c 2.0625,-0.2157 5.4375,-0.2157 7.5,0 2.0625,0.2158 0.375,0.3923 -3.75,0.3923 -4.125,0 -5.8125,-0.1765 -3.75,-0.3923 z m 777.5625,0.045 c 0.7219,-0.2889 1.5844,-0.2534 1.9167,0.079 0.3323,0.3323 -0.2584,0.5687 -1.3125,0.5253 -1.165,-0.048 -1.4019,-0.285 -0.6042,-0.6042 z m 5.4512,-0.034 c 1.5201,-0.2298 3.7701,-0.2237 5,0.014 1.23,0.2373 -0.014,0.4254 -2.7637,0.4179 -2.75,-0.01 -3.7563,-0.2017 -2.2363,-0.4316 z m 9.5488,0.034 c 0.7219,-0.2889 1.5844,-0.2534 1.9167,0.079 0.3323,0.3323 -0.2584,0.5687 -1.3125,0.5253 -1.165,-0.048 -1.4019,-0.285 -0.6042,-0.6042 z m 1241.2664,-10.9002 c 0.048,-1.165 0.285,-1.4019 0.6042,-0.6042 0.2889,0.7219 0.2534,1.5844 -0.079,1.9167 -0.3323,0.3323 -0.5687,-0.2584 -0.5253,-1.3125 z m -2157.99995,-24 c 0.048,-1.165 0.28494,-1.4019 0.60416,-0.6042 0.28887,0.7219 0.25335,1.5844 -0.0789,1.9167 -0.33229,0.3323 -0.56864,-0.2584 -0.52522,-1.3125 z M 2088.2724,1299 c 0,-2.475 0.195,-3.4875 0.4333,-2.25 0.2384,1.2375 0.2384,3.2625 0,4.5 -0.2383,1.2375 -0.4333,0.225 -0.4333,-2.25 z m -810.9625,-3.5 c 0.01,-3.3 0.1923,-4.5294 0.4148,-2.7321 0.2226,1.7974 0.218,4.4974 -0.01,6 -0.2281,1.5027 -0.4102,0.032 -0.4046,-3.2679 z M 1680.232,1283 c 0,-1.925 0.2058,-2.7125 0.4573,-1.75 0.2516,0.9625 0.2516,2.5375 0,3.5 -0.2515,0.9625 -0.4573,0.175 -0.4573,-1.75 z m 722,0 c 0,-1.925 0.2058,-2.7125 0.4573,-1.75 0.2516,0.9625 0.2516,2.5375 0,3.5 -0.2515,0.9625 -0.4573,0.175 -0.4573,-1.75 z m -1022,-1 c 0,-1.925 0.2058,-2.7125 0.4573,-1.75 0.2516,0.9625 0.2516,2.5375 0,3.5 -0.2515,0.9625 -0.4573,0.175 -0.4573,-1.75 z m -854.96297,-6.693 c 0.97297,-0.2535 2.32297,-0.2369 3,0.037 0.67703,0.2739 -0.11903,0.4813 -1.76903,0.461 -1.65,-0.02 -2.20394,-0.2445 -1.23097,-0.4981 z m 335.54347,0.01 c 0.72187,-0.2889 1.58438,-0.2534 1.91667,0.079 0.33229,0.3323 -0.25834,0.5687 -1.3125,0.5253 -1.16495,-0.048 -1.4019,-0.285 -0.60417,-0.6042 z m 4,0 c 0.72187,-0.2889 1.58438,-0.2534 1.91667,0.079 0.33229,0.3323 -0.25834,0.5687 -1.3125,0.5253 -1.16495,-0.048 -1.4019,-0.285 -0.60417,-0.6042 z m 222,0 c 0.7219,-0.2889 1.5844,-0.2534 1.9167,0.079 0.3323,0.3323 -0.2584,0.5687 -1.3125,0.5253 -1.165,-0.048 -1.4019,-0.285 -0.6042,-0.6042 z m -775.52599,-80.057 c 3.18258,-0.199 8.13258,-0.1972 11,0 2.86742,0.2013 0.26349,0.3642 -5.78651,0.3619 -6.05,-0 -8.39607,-0.1669 -5.21349,-0.366 z m 281.46349,0 c 2.8875,-0.202 7.6125,-0.202 10.5,0 2.8875,0.202 0.525,0.3672 -5.25,0.3672 -5.775,0 -8.1375,-0.1652 -5.25,-0.3672 z m 27.5,0.048 c 0.9625,-0.2516 2.5375,-0.2516 3.5,0 0.9625,0.2515 0.175,0.4573 -1.75,0.4573 -1.925,0 -2.7125,-0.2058 -1.75,-0.4573 z m 173.53352,-0.049 c 2.90594,-0.2026 7.40594,-0.2005 10,0 2.59406,0.2053 0.21648,0.3711 -5.28352,0.3685 -5.5,-0 -7.62242,-0.1706 -4.71648,-0.3732 z m 1179.98438,0.014 c 1.7974,-0.2226 4.4974,-0.218 6,0.01 1.5027,0.2281 0.032,0.4102 -3.2679,0.4046 -3.3,-0.01 -4.5294,-0.1923 -2.7321,-0.4148 z m 13.9821,-0.013 c 2.8875,-0.202 7.6125,-0.202 10.5,0 2.8875,0.202 0.525,0.3672 -5.25,0.3672 -5.775,0 -8.1375,-0.1652 -5.25,-0.3672 z m 317.5,-0.01 c 5.9125,-0.1768 15.5875,-0.1768 21.5,0 5.9125,0.1768 1.075,0.3214 -10.75,0.3214 -11.825,0 -16.6625,-0.1446 -10.75,-0.3214 z M 1534.3818,1181.5 c 0,-6.6 0.1638,-9.1699 0.3596,-5.7108 0.1958,3.459 0.1942,8.859 -0,12 -0.1978,3.1409 -0.358,0.3108 -0.356,-6.2892 z m 805.8131,9 c 0.02,-1.65 0.2445,-2.2039 0.4981,-1.231 0.2535,0.973 0.2369,2.323 -0.037,3 -0.2739,0.6771 -0.4813,-0.119 -0.461,-1.769 z m -953.885,-12 c 0.01,-3.3 0.1923,-4.5294 0.4148,-2.7321 0.2226,1.7974 0.218,4.4974 -0.01,6 -0.2281,1.5027 -0.4102,0.032 -0.4046,-3.2679 z m -0.231,-9.0833 c 0.048,-1.165 0.285,-1.4019 0.6042,-0.6042 0.2889,0.7219 0.2534,1.5844 -0.079,1.9167 -0.3323,0.3323 -0.5687,-0.2584 -0.5253,-1.3125 z m 954,-5 c 0.048,-1.165 0.285,-1.4019 0.6042,-0.6042 0.2889,0.7219 0.2534,1.5844 -0.079,1.9167 -0.3323,0.3323 -0.5687,-0.2584 -0.5253,-1.3125 z m 0.2412,-8.4167 c 0,-3.575 0.1815,-5.0375 0.4033,-3.25 0.2218,1.7875 0.2218,4.7125 0,6.5 -0.2218,1.7875 -0.4033,0.325 -0.4033,-3.25 z m -906.0102,-5.5 c 0.01,-3.3 0.1923,-4.5294 0.4148,-2.7321 0.2226,1.7974 0.218,4.4974 -0.01,6 -0.2281,1.5027 -0.4102,0.032 -0.4046,-3.2679 z m 0.064,-17 c 0,-6.05 0.1669,-8.3961 0.366,-5.2135 0.199,3.1826 0.1972,8.1326 -0,11 -0.2013,2.8674 -0.3642,0.2635 -0.3619,-5.7865 z m 905.7048,8.9167 c 0.048,-1.165 0.285,-1.4019 0.6042,-0.6042 0.2889,0.7219 0.2534,1.5844 -0.079,1.9167 -0.3323,0.3323 -0.5687,-0.2584 -0.5253,-1.3125 z M 396.87244,1141.25 c -1.24387,-1.5861 -1.2085,-1.6214 0.37756,-0.3776 0.9625,0.7549 1.75,1.5424 1.75,1.75 0,0.8231 -0.82119,0.2933 -2.12756,-1.3724 z m 1037.20646,-22.8333 c 0.048,-1.165 0.285,-1.4019 0.6042,-0.6042 0.2889,0.7219 0.2534,1.5844 -0.079,1.9167 -0.3323,0.3323 -0.5687,-0.2584 -0.5253,-1.3125 z M 835.232,1116 c 0,-1.925 0.2058,-2.7125 0.45733,-1.75 0.25152,0.9625 0.25152,2.5375 0,3.5 -0.25153,0.9625 -0.45733,0.175 -0.45733,-1.75 z m 1504.8469,-0.5833 c 0.048,-1.165 0.285,-1.4019 0.6042,-0.6042 0.2889,0.7219 0.2534,1.5844 -0.079,1.9167 -0.3323,0.3323 -0.5687,-0.2584 -0.5253,-1.3125 z M 1434.4048,1100.5 c 0,-8.8 0.1542,-12.2661 0.34,-7.7025 0.1857,4.5636 0.1846,11.7636 -0,16 -0.187,4.2364 -0.339,0.5025 -0.3377,-8.2975 z m -599.24691,9.5 c 0,-1.375 0.22698,-1.9375 0.50439,-1.25 0.27741,0.6875 0.27741,1.8125 0,2.5 -0.27741,0.6875 -0.50439,0.125 -0.50439,-1.25 z m -48.07894,-4.5833 c 0.048,-1.165 0.28494,-1.4019 0.60416,-0.6042 0.28887,0.7219 0.25335,1.5844 -0.0789,1.9167 -0.33229,0.3323 -0.56864,-0.2584 -0.52522,-1.3125 z M 2340.1579,1105 c 0,-1.375 0.227,-1.9375 0.5044,-1.25 0.2774,0.6875 0.2774,1.8125 0,2.5 -0.2774,0.6875 -0.5044,0.125 -0.5044,-1.25 z m -602.7157,-29 c 0,-16.225 0.1376,-22.8625 0.3057,-14.75 0.168,8.1125 0.168,21.3875 0,29.5 -0.1681,8.1125 -0.3057,1.475 -0.3057,-14.75 z m -902.36325,24.4167 c 0.048,-1.165 0.28494,-1.4019 0.60416,-0.6042 0.28887,0.7219 0.25335,1.5844 -0.0789,1.9167 -0.33229,0.3323 -0.56864,-0.2584 -0.52522,-1.3125 z m -503.884,-4.9167 c 0.0204,-1.65 0.2445,-2.2039 0.49804,-1.231 0.25354,0.973 0.23687,2.323 -0.0371,3 -0.27393,0.6771 -0.48137,-0.119 -0.46099,-1.769 z M 835.232,1094 c 0,-1.925 0.2058,-2.7125 0.45733,-1.75 0.25152,0.9625 0.25152,2.5375 0,3.5 -0.25153,0.9625 -0.45733,0.175 -0.45733,-1.75 z m 1505,-1 c 0,-1.925 0.2058,-2.7125 0.4573,-1.75 0.2516,0.9625 0.2516,2.5375 0,3.5 -0.2515,0.9625 -0.4573,0.175 -0.4573,-1.75 z m -1504.95964,-8 c 0,-2.475 0.19502,-3.4875 0.43337,-2.25 0.23836,1.2375 0.23836,3.2625 0,4.5 -0.23835,1.2375 -0.43337,0.225 -0.43337,-2.25 z m 1504.80654,2.4167 c 0.048,-1.165 0.285,-1.4019 0.6042,-0.6042 0.2889,0.7219 0.2534,1.5844 -0.079,1.9167 -0.3323,0.3323 -0.5687,-0.2584 -0.5253,-1.3125 z M 1434.3917,1067 c 0,-7.425 0.1574,-10.4625 0.3499,-6.75 0.1924,3.7125 0.1924,9.7875 0,13.5 -0.1925,3.7125 -0.3499,0.675 -0.3499,-6.75 z M 258,1071.6224 c 0,-0.2076 0.7875,-0.9951 1.75,-1.75 1.58606,-1.2438 1.62143,-1.2085 0.37756,0.3776 -1.30637,1.6657 -2.12756,2.1955 -2.12756,1.3724 z M 1603.3494,1047 c 0,-4.675 0.1723,-6.5875 0.3828,-4.25 0.2105,2.3375 0.2105,6.1625 0,8.5 -0.2105,2.3375 -0.3828,0.425 -0.3828,-4.25 z m -169.1915,4 c 0,-1.375 0.227,-1.9375 0.5044,-1.25 0.2774,0.6875 0.2774,1.8125 0,2.5 -0.2774,0.6875 -0.5044,0.125 -0.5044,-1.25 z m 0.1849,-18.5 c 0,-4.4 0.1795,-6.0756 0.3907,-3.7236 0.2112,2.3521 0.2083,5.9521 -0.01,8 -0.2149,2.048 -0.3877,0.1236 -0.3841,-4.2764 z m 303,-10 c 0,-4.4 0.1795,-6.0756 0.3907,-3.7236 0.2112,2.3521 0.2083,5.9521 -0.01,8 -0.2149,2.048 -0.3877,0.1236 -0.3841,-4.2764 z m -303.2639,-0.083 c 0.048,-1.165 0.285,-1.4019 0.6042,-0.6042 0.2889,0.7219 0.2534,1.5844 -0.079,1.9167 -0.3323,0.3323 -0.5687,-0.2584 -0.5253,-1.3125 z M 1555.232,1006 c 0,-1.925 0.2058,-2.7125 0.4573,-1.75 0.2516,0.9625 0.2516,2.5375 0,3.5 -0.2515,0.9625 -0.4573,0.175 -0.4573,-1.75 z M 1248.5,836 c 0.9955,-1.1 2.035,-2 2.31,-2 0.275,0 -0.3145,0.9 -1.31,2 -0.9955,1.1 -2.035,2 -2.31,2 -0.275,0 0.3145,-0.9 1.31,-2 z m 23.5,-23.37756 c 0,-0.20765 0.7875,-0.99515 1.75,-1.75 1.5861,-1.24387 1.6214,-1.2085 0.3776,0.37756 -1.3064,1.66575 -2.1276,2.19548 -2.1276,1.37244 z m 237.5,-48.99514 c -11,-11.15839 -53.3,-53.89569 -94,-94.97178 -40.7,-41.07609 -74.1337,-75.5006 -74.2972,-76.4989 -0.2045,-1.24939 8.0144,-9.97173 26.3708,-27.98586 C 1382.241,549.77684 1394.6638,538 1395.1798,538 c 0.516,0 19.4172,18.5625 42.0026,41.25 22.5854,22.6875 77.4589,77.74206 121.941,122.34346 44.4821,44.6014 80.8766,81.3889 80.8766,81.75 0,0.3611 -24.8625,0.63748 -55.25,0.61418 l -55.25,-0.0424 z m -354,-74.69224 c -9.9,-7.69188 -26.6217,-20.61144 -37.1593,-28.71014 -19.46,-14.95605 -48.6929,-37.66413 -91.616,-71.16734 -13.0765,-10.20667 -30.40146,-23.66735 -38.50003,-29.91262 C 962.93063,539.63928 946,525.98674 946,525.09579 c 0,-0.47114 9.3375,-8.09306 20.75,-16.93759 11.4125,-8.84453 26.6,-20.62824 33.75,-26.18602 7.15,-5.55778 16.375,-12.69017 20.5,-15.84976 4.125,-3.15959 14.418,-11.11719 22.8733,-17.68356 8.4553,-6.56637 16.8817,-13.06386 18.7252,-14.43886 1.8435,-1.375 13.0763,-10.15 24.9618,-19.5 11.8854,-9.35 25.8081,-20.15 30.9392,-24 5.1312,-3.85 16.2304,-12.36427 24.6649,-18.92059 C 1167.8395,352.39908 1173.653,348 1174.3252,348 c 0.3485,0 0.6418,18.73544 0.6517,41.63431 l 0.018,41.6343 -3.3099,3.1157 c -1.8204,1.71363 -10.4818,8.58677 -19.2474,15.27365 -15.6066,11.90548 -34.4851,26.4481 -45.4376,35.00187 -3.025,2.36248 -12.7,9.78887 -21.5,16.50308 -26.9578,20.56822 -30.8546,23.92962 -29.3326,25.30276 2.1616,1.95018 23.826,18.77816 30.2678,23.51068 3.2643,2.39819 6.6393,4.93248 7.5,5.63176 0.8606,0.69927 7.6398,6.02338 15.0648,11.83135 7.425,5.80798 15.075,11.82577 17,13.37287 1.925,1.5471 10.7,8.26443 19.5,14.92739 8.8,6.66295 19.0375,14.63217 22.75,17.70937 l 6.75,5.5949 v 41.978 c 0,23.08791 -0.3375,41.96007 -0.75,41.93815 -0.4125,-0.0219 -8.85,-6.33321 -18.75,-14.02508 z m 486.2333,10.36072 c -0.6747,-5.16095 0.084,-80.19116 0.823,-81.38685 0.324,-0.52431 3.0921,-2.85581 6.1513,-5.18111 3.0592,-2.3253 7.016,-5.35282 8.7929,-6.72782 1.7769,-1.375 8.7562,-6.775 15.5095,-12 6.7533,-5.225 15.7587,-12.2 20.012,-15.5 4.2533,-3.3 16.4508,-12.70956 27.1056,-20.91014 30.1383,-23.19619 39.7846,-30.99664 39.8302,-32.20855 0.023,-0.61529 -7.6682,-7.14029 -17.092,-14.5 -9.4238,-7.35972 -24.0175,-18.78131 -32.4306,-25.38131 -8.413,-6.6 -27.2527,-21.22024 -41.8658,-32.48943 L 1642,432.52115 l -0.1035,-6.01058 c -0.3467,-20.12758 -0.4418,-77.13751 -0.1298,-77.77867 0.493,-1.01328 3.173,0.90408 26.2333,18.76832 10.725,8.30839 26.2053,20.25722 34.4007,26.55297 8.1953,6.29574 17.4912,13.47181 20.6574,15.94681 3.1662,2.475 10.4109,8.07879 16.0993,12.45287 5.6884,4.37408 19.3218,14.94908 30.2965,23.5 10.9746,8.55092 21.5664,16.67213 23.5373,18.04713 1.9709,1.375 10.7666,8.20132 19.5461,15.1696 8.7795,6.96828 25.3896,20.01828 36.9114,29 11.5217,8.98172 20.9475,16.7804 20.9462,17.3304 -0,0.55 -4.9583,4.825 -11.0154,9.5 -6.0571,4.675 -19.7579,15.23745 -30.4462,23.47211 -10.6883,8.23466 -28.0499,21.73466 -38.5812,30 -10.5313,8.26534 -23.2955,18.17789 -28.3649,22.02789 -5.0693,3.85 -14.0802,10.825 -20.0242,15.5 -16.6102,13.0642 -27.6102,21.59801 -80.2806,62.28206 -8.6997,6.71987 -16.6355,12.80104 -17.6352,13.51372 -1.6502,1.17636 -1.8634,0.94596 -2.3139,-2.5 z M 1408.7092,471.37584 c -0.3901,-0.39005 -0.6919,-24.82167 -0.6707,-54.29251 l 0.039,-53.58333 59.7114,-60.27638 59.7115,-60.27638 54.25,0.0264 c 42.7204,0.0208 54.2496,0.29204 54.248,1.27638 -0,1.74571 -226.4171,227.99759 -227.2888,227.12584 z M 1365.5,406 c 0.9955,-1.1 2.035,-2 2.31,-2 0.275,0 -0.3145,0.9 -1.31,2 -0.9955,1.1 -2.035,2 -2.31,2 -0.275,0 0.3145,-0.9 1.31,-2 z"
         id="path3" />
      <path
         style="fill:#042d55"
         d="m 302.37267,1377.0687 c -8.02467,-2.1573 -18.05763,-6.9119 -20.48814,-9.7094 -1.5039,-1.7309 -1.37588,-2.3596 1.85367,-9.1036 l 3.46915,-7.2442 2.78915,1.986 c 9.22077,6.5658 24.15961,10.7195 35.01304,9.7354 13.80081,-1.2515 21.07979,-10.7196 14.37078,-18.6928 -3.33326,-3.9613 -6.76985,-5.3736 -23.35856,-9.5993 -15.75089,-4.0122 -22.93494,-7.3532 -27.64568,-12.8566 -4.234,-4.9465 -5.68355,-10.137 -5.20349,-18.6328 0.68561,-12.1336 7.64825,-20.8834 20.82741,-26.1732 4.6651,-1.8725 7.4734,-2.213 18.5,-2.2429 11.00406,-0.03 14.06388,0.3211 19.92926,2.2858 6.20034,2.077 14.57074,5.7984 14.57074,6.4781 0,1.3132 -6.07575,14.1982 -6.69107,14.1899 -0.44491,-0.01 -4.63393,-1.5438 -9.30893,-3.4173 -7.36266,-2.9506 -9.70424,-3.4174 -17.5,-3.4891 -7.70108,-0.071 -9.72162,0.2781 -14,2.4173 -9.97484,4.9874 -10.84624,14.2877 -1.87197,19.9791 2.83813,1.7998 9.13221,3.9447 17.63333,6.009 27.45491,6.6668 35.75224,13.5759 35.72887,29.751 -0.0178,12.3303 -7.39498,22.5218 -19.84314,27.4131 -8.09687,3.1816 -28.55058,3.665 -38.77442,0.9165 z M 643,1376.9564 c -8.3333,-2.1482 -19.76601,-7.5621 -21.34153,-10.1061 -0.76307,-1.2321 -0.30842,-3.2569 1.79633,-8 1.5499,-3.4926 2.96658,-6.5228 3.1482,-6.7336 0.18161,-0.2108 4.50773,1.7102 9.6136,4.2688 17.03256,8.5353 34.01241,8.9798 42.35799,1.1089 2.76551,-2.6082 3.42541,-3.9837 3.42541,-7.14 0,-7.9394 -3.90832,-10.4187 -24.76637,-15.7108 -20.39541,-5.1747 -27.38741,-9.0667 -31.74821,-17.6724 -3.30467,-6.5214 -3.47336,-16.8912 -0.38177,-23.4683 7.41338,-15.7713 30.10145,-23.3614 53.5843,-17.9262 6.06303,1.4033 15.54907,5.3387 17.5475,7.2798 0.4045,0.3929 -0.1199,2.9484 -1.16532,5.6789 -1.04542,2.7306 -2.36919,6.1796 -2.94172,7.6647 l -1.04097,2.7001 -5.79372,-2.9682 c -22.7493,-11.6546 -50.10157,-2.9976 -41.72272,13.2053 2.04674,3.958 6.95518,6.0677 22.96825,9.872 16.36709,3.8885 23.23657,6.9745 28.82563,12.9497 3.3038,3.532 4.67442,5.997 5.51568,9.9197 1.46014,6.8084 1.41384,8.7669 -0.34741,14.6977 -3.01299,10.1459 -11.69003,17.6975 -23.99325,20.8813 -8.36215,2.1639 -24.11463,1.9285 -33.5399,-0.5013 z m 110.5,1.0216 c -24.60652,-4.939 -41.5,-25.8193 -41.5,-51.2938 0,-29.648 23.37603,-52.6546 53.5,-52.6546 30.49895,0 53.5,23.0006 53.5,53.499 0,24.6654 -16.71947,45.3023 -40.79922,50.3586 -5.97064,1.2538 -18.67414,1.3005 -24.70078,0.091 z m 26.46932,-18.9376 c 6.90635,-3.5616 9.77565,-6.0127 13.45069,-11.4901 5.18153,-7.7228 6.9463,-14.3754 6.30304,-23.7605 -0.69514,-10.1418 -3.91899,-16.9403 -11.17993,-23.5764 -16.83445,-15.3857 -43.99186,-10.2456 -53.63853,10.1523 -6.64851,14.0582 -3.8651,31.3798 6.7458,41.98 7.10805,7.1009 14.51245,9.7701 25.84961,9.3184 5.93561,-0.2365 9.1533,-0.9135 12.46932,-2.6237 z m 979.69588,18.9128 c -19.201,-3.2233 -37.0629,-21.6366 -40.6967,-41.9532 -2.1234,-11.8722 0.901,-27.8572 7.0006,-37 7.9132,-11.8612 18.6761,-19.4566 32.6269,-23.0246 18.506,-4.733 37.0679,-0.6916 50.404,10.9743 l 4.5,3.9364 -6,5.511 c -3.3,3.0311 -6.3336,5.5317 -6.7413,5.557 -0.4078,0.025 -2.7417,-1.481 -5.1865,-3.3471 -7.0001,-5.3433 -12.7323,-7.1078 -23.0722,-7.1019 -7.2271,0 -9.9693,0.451 -13.9203,2.2691 -8.0019,3.682 -13.1291,8.565 -16.7799,15.9809 -3.0676,6.2312 -3.2998,7.4079 -3.2998,16.7239 0,8.9185 0.3039,10.6398 2.7622,15.6455 3.2574,6.6331 10.9067,14.1407 17.5206,17.1962 6.8015,3.1422 23.5589,3.1048 30.4672,-0.068 l 4.75,-2.1815 V 1341.0355 1325 h 9 9 v 20.4274 20.4274 l -2.6778,2.1064 c -4.2363,3.3323 -14.4213,7.8505 -21.4104,9.4979 -6.8079,1.6047 -20.2317,1.8395 -28.2466,0.4941 z m 718.6093,-0.4922 c -23.0862,-6.218 -38.208,-26.3757 -38.2597,-51.0009 -0.03,-14.3191 4.8994,-26.3761 14.8881,-36.4144 11.2142,-11.27 25.9462,-16.6663 43.0971,-15.7863 13.0606,0.67 23.2419,4.8443 33.6524,13.7971 l 3.1524,2.711 -4.6524,4.423 c -7.776,7.3925 -7.6074,7.327 -11.3997,4.4345 -1.8354,-1.4 -6.0181,-3.7937 -9.2949,-5.3195 -5.1228,-2.3853 -7.2191,-2.774 -14.9578,-2.774 -7.7512,0 -9.8325,0.3873 -15,2.7916 -12.6974,5.9078 -19.81,17.4895 -19.7606,32.1769 0.059,17.6372 10.0146,30.7937 26.1151,34.5128 7.0802,1.6354 18.4142,0.7739 24.3955,-1.8545 l 4.75,-2.0872 V 1341.5355 1326 h 9.5 9.5 v 19.9319 19.9319 l -2.9879,2.1276 c -5.1251,3.6494 -17.2474,8.7768 -23.4458,9.9171 -8.0911,1.4884 -22.9467,1.2614 -29.2918,-0.4475 z m -2112.68702,-0.3195 c -0.2918,-0.4721 3.42228,-9.8096 8.25352,-20.75 4.83124,-10.9403 14.80984,-33.5187 22.17466,-50.1742 l 13.39059,-30.2828 9.90431,0.2828 9.90431,0.2827 4.97057,11 c 2.73381,6.05 9.15899,20.45 14.27817,32 5.11918,11.55 11.99698,26.85 15.284,34 3.28702,7.15 6.95624,15.1518 8.15382,17.7817 1.19759,2.6299 1.90813,5.2174 1.57898,5.75 -0.91434,1.4794 -18.03925,1.2279 -19.18046,-0.2817 -0.51971,-0.6875 -2.93731,-6.0768 -5.37244,-11.9763 l -4.42751,-10.7263 -25.18261,-0.024 -25.18261,-0.024 -0.6806,2.25 c -0.37432,1.2375 -2.48538,6.6375 -4.69123,12 l -4.01064,9.75 h -9.31714 c -5.12442,0 -9.55588,-0.3863 -9.84769,-0.8585 z m 70.72243,-39.7118 c -0.10455,-0.5886 -3.06615,-8.0136 -6.58135,-16.5 -3.51519,-8.4863 -7.25465,-17.5655 -8.30991,-20.176 -1.05526,-2.6104 -2.18065,-4.7479 -2.50087,-4.75 -0.32022,-0 -1.06318,1.4588 -1.65102,3.2463 -0.58784,1.7875 -4.09094,10.45 -7.78467,19.25 -3.69372,8.8 -6.91832,16.9 -7.16578,18 -0.43649,1.9403 0.0668,2 16.86689,2 11.75416,0 17.25574,-0.3438 17.12671,-1.0703 z m 50.39273,39.9396 C 486.31619,1376.9829 486,1354.0167 486,1326.3333 V 1276 h 25.89466 c 29.28081,0 33.94842,0.7998 43.88067,7.5186 10.45316,7.0713 14.7176,16.2882 14.045,30.3561 -0.68687,14.3666 -6.40466,22.8915 -19.70402,29.3775 l -6.61631,3.2267 -19.22445,0.3522 -19.22445,0.3522 -0.27555,15.1583 -0.27555,15.1584 -8.54736,0.286 c -4.70104,0.1573 -8.86354,-0.03 -9.25,-0.4167 z m 55.48888,-49.8344 c 5.75059,-3.6418 8.80848,-8.7699 8.80848,-14.7718 0,-6.0806 -1.67891,-10.6378 -5.35683,-14.5405 C 541.07919,1293.3797 535.14095,1292 518.86032,1292 h -13.77669 l -0.29181,19.0855 c -0.1605,10.4971 -0.0754,19.301 0.18914,19.5643 0.26452,0.2633 7.69168,0.3374 16.50478,0.1645 15.79992,-0.3099 16.08926,-0.3557 20.70578,-3.2794 z m 295.51001,49.8333 C 837.31569,1376.9824 837,1354.0167 837,1326.3333 V 1276 h 37.04206 37.04207 l -0.29207,7.75 -0.29206,7.75 -27.35075,0.2663 c -24.34169,0.2369 -27.28466,0.4384 -26.75,1.8317 0.33041,0.8611 0.60075,7.6038 0.60075,14.9838 V 1322 h 24 24 v 7.9822 7.9822 l -24.06287,0.2678 -24.06287,0.2678 -0.18713,19.5 -0.18713,19.5 -9.04847,0.2849 c -4.97667,0.1566 -9.36417,-0.031 -9.75,-0.4167 z m 113.00111,0 C 950.31619,1376.9829 950,1357.6167 950,1334.3333 V 1292 H 933.5 917 v -8 -8 h 42.5 42.5 v 8 8 h -16.48926 -16.48927 l -0.26073,42.75 -0.26074,42.75 -8.54736,0.286 c -4.70104,0.1573 -8.86354,-0.03 -9.25,-0.4167 z m 86.85056,-0.5841 c -3.6668,-11.4663 -31.9429,-98.6319 -32.2887,-99.5352 -0.3629,-0.948 1.9119,-1.25 9.4159,-1.25 h 9.8943 l 3.1239,9.75 c 19.1195,59.6733 22.3014,68.8269 22.3014,64.1551 0,-0.8222 3.3613,-11.8247 7.4696,-24.45 4.1083,-12.6253 9.3958,-28.9027 11.75,-36.1721 l 4.2804,-13.2169 7.75,-0.1831 c 4.2625,-0.1006 8.2862,-0.228 8.9416,-0.283 0.7083,-0.059 6.3295,15.5171 13.8577,38.4 6.9663,21.175 12.9098,37.825 13.2078,37 0.298,-0.825 2.6494,-8.25 5.2253,-16.5 2.5759,-8.25 7.8335,-24.7875 11.6836,-36.75 l 7.0002,-21.75 h 9.5239 c 7.2032,0 9.4093,0.3046 9.0537,1.25 -1.3928,3.7027 -28.1483,86.1622 -32.2627,99.4328 -0.2561,0.826 -3.4751,1.1276 -10.6739,1 L 1106.5,1377.5 1098.9807,1355 c -4.1356,-12.375 -9.4609,-28.7247 -11.834,-36.3326 -2.3731,-7.608 -4.5526,-13.5949 -4.8433,-13.3042 -0.2906,0.2907 -5.8178,16.6404 -12.2826,36.3327 l -11.7541,35.8041 -10.1512,0.2852 c -7.5907,0.2132 -10.2549,-0.039 -10.5623,-1 z m 119.0239,0.4557 c -0.1441,-0.1426 9.6663,-22.9801 21.8009,-50.75 L 1200.441,1276 h 10.0616 10.0617 l 3.6275,8.25 c 9.6387,21.9217 38.6865,86.6331 40.1829,89.518 2.1686,4.1804 1.6215,4.4016 -9.949,4.0234 l -8.9159,-0.2914 -5.0049,-11.7268 -5.0049,-11.7268 -25.0189,-0.023 -25.0189,-0.023 -2.8137,7.25 c -1.5475,3.9875 -3.7951,9.275 -4.9948,11.75 l -2.1811,4.5 h -9.3167 c -5.1242,0 -9.4346,-0.1166 -9.5788,-0.2591 z M 1228,1338.0212 c 0,-0.5668 -3.9064,-10.2771 -8.6809,-21.5784 -5.7675,-13.6517 -8.9462,-20.0736 -9.4715,-19.135 -1.245,2.2247 -16.8476,39.8778 -16.8476,40.6577 0,0.3845 7.875,0.7863 17.5,0.8928 11.4724,0.1269 17.5,-0.1614 17.5,-0.8371 z m 50.5249,38.768 c -0.2433,-0.7091 -0.5734,-23.7018 -0.7336,-51.0951 l -0.2913,-49.8058 28,0.3058 28,0.3059 6.6234,3.1382 c 13.4685,6.3815 19.8653,15.4527 20.6673,29.3081 0.5496,9.4931 -1.4549,17.1469 -6.0782,23.2084 -3.1203,4.091 -10.1863,10.1699 -12.8554,11.0596 -1.2978,0.4326 2.5138,6.6431 14.8648,24.2204 3.4529,4.9141 6.2781,9.3173 6.2781,9.785 0,0.4676 -4.6073,0.722 -10.2385,0.5653 l -10.2384,-0.285 -5.5116,-8.0964 c -3.0313,-4.4531 -7.7089,-11.3156 -10.3946,-15.25 l -4.883,-7.1536 h -12.3409 -12.3409 l -0.2761,15.25 -0.276,15.25 -8.7664,0.2892 c -6.4683,0.2133 -8.8823,-0.049 -9.2087,-1 z m 51.1963,-47.1153 c 4.513,-1.6447 9.9124,-7.0336 11.3197,-11.2977 1.7471,-5.294 0.764,-13.5697 -2.1178,-17.8266 -4.3866,-6.4797 -9.222,-8.0006 -26.6731,-8.3893 L 1297,1291.8205 V 1311.4103 1331 l 14.75,-0.076 c 8.5943,-0.044 16.0943,-0.566 17.9712,-1.25 z m 86.6876,47.5767 -36.0911,-0.2752 0.091,-50.4851 0.091,-50.4851 36.7921,-0 36.792,-0 -0.292,7.75 -0.2921,7.75 -26.75,0.2663 -26.75,0.2664 v 12.9655 12.9656 l 23.75,0.2681 23.75,0.2681 0.2921,7.75 0.292,7.75 h -23.9864 -23.9865 l -0.3056,13.0868 c -0.1681,7.1977 -0.1181,13.2727 0.1111,13.5 0.2291,0.2273 12.9416,0.4132 28.25,0.4132 H 1456 v 8.5 c 0,7.5189 -0.202,8.4726 -1.75,8.2629 -0.9625,-0.1305 -17.991,-0.361 -37.8412,-0.5123 z m 99.0083,-0.1673 c -0.2294,-0.2291 -0.4171,-23.0666 -0.4171,-50.75 V 1276 h 36.5 36.5 v 8 8 h -27 -27 v 13 13 h 24 24 v 7.9819 7.9819 l -23.75,0.2681 -23.75,0.2681 -0.279,13.25 -0.2791,13.25 h 28.5695 28.5695 l -0.2905,8.0502 -0.2904,8.0501 -37.3329,0.1999 c -20.5332,0.1099 -37.5207,0.012 -37.75,-0.2169 z m 95.0829,0.1719 c -0.6497,-0.4907 -0.906,-18.3713 -0.7317,-51.0453 l 0.2683,-50.2902 8.1959,0.2902 8.1959,0.2901 23.3683,29 c 12.8526,15.95 24.7937,30.8949 26.5358,33.211 1.7421,2.316 3.4337,4.2285 3.759,4.25 0.3253,0.021 0.5503,-15.0358 0.5,-33.4605 l -0.091,-33.4996 9.7592,-4e-4 9.7591,-5e-4 -0.2591,50.75 -0.2592,50.75 -7.5265,0.288 c -7.1256,0.2727 -7.6634,0.1396 -10.0977,-2.5 -3.0561,-3.3137 -41.4155,-50.8773 -47.8758,-59.3634 l -4.5,-5.911 -0.5,33.7432 -0.5,33.7432 -8.5,0.2552 c -4.675,0.1403 -8.95,-0.085 -9.5,-0.5 z m 225.1667,0.078 c -0.3667,-0.3666 -0.6667,-23.3166 -0.6667,-51 V 1276 h 9.5 9.5 v 51 51 h -8.8333 c -4.8584,0 -9.1334,-0.3 -9.5,-0.6667 z m 44,0 c -0.3667,-0.3666 -0.6667,-23.3166 -0.6667,-51 V 1276 h 8.3976 8.3975 l 24.8525,31.1434 c 13.6688,17.1288 25.8507,32.3163 27.0708,33.75 l 2.2184,2.6066 0.032,-33.75 L 1950,1276 h 9.5092 9.5091 l -0.2591,50.75 -0.2592,50.75 -7.6631,0.2905 -7.6631,0.2905 -19.912,-24.7905 c -10.9516,-13.6348 -22.9634,-28.6155 -26.6929,-33.2905 -3.7295,-4.675 -7.1962,-8.6543 -7.7039,-8.843 -0.5533,-0.2056 -0.8831,12.7029 -0.8236,32.2317 0.055,17.916 -0.1839,33.0329 -0.5301,33.593 -0.6884,1.1138 -16.7656,1.4306 -17.8446,0.3516 z m 114.536,-0.5328 c -0.3865,-0.3848 -0.582,-23.2223 -0.4345,-50.75 L 1994.0365,1276 H 2030.5182 2067 v 8 8 h -27 -27 v 13 13 h 24 24 v 8 8 h -24 -24 v 13.5 13.5 h 28.5404 28.5405 l -0.2905,8.1582 -0.2904,8.1583 -37.2973,0.092 c -20.5134,0.05 -37.6134,-0.223 -38,-0.6077 z m 94.5981,0.1995 c -0.1111,-0.275 -0.2243,-23.1122 -0.2514,-50.7493 l -0.049,-50.2492 36.75,-8e-4 36.75,-7e-4 v 8.0459 8.0459 l -26.9899,-0.2959 c -17.3903,-0.1907 -27.0924,0.06 -27.2783,0.7041 -0.1587,0.55 -0.1255,6.5125 0.074,13.25 l 0.3621,12.25 H 2132.0837 2156 v 8 8 h -24 -24 v 13.5 13.5 h 28 28 l 0.1667,6.5 c 0.092,3.575 0.2041,7.2576 0.25,8.1835 0.077,1.5487 -2.9408,1.6888 -37.6652,1.75 -20.7618,0.037 -37.8395,-0.1585 -37.9507,-0.4335 z m 94.8659,0.3333 C 2183.3,1376.9667 2183,1353.9853 2183,1326.2637 v -50.4029 l 28.25,0.3456 c 26.405,0.323 28.6092,0.4903 33.75,2.5625 9.09,3.6639 15.022,8.8688 19,16.6712 3.28,6.4334 3.5,7.4681 3.5,16.4624 0,9.1343 -0.1729,9.9112 -3.5823,16.0975 -3.2603,5.9156 -6.6146,9.3181 -13.8803,14.0799 l -2.4107,1.5799 2.118,3.4201 c 1.1649,1.8811 6.1895,9.2157 11.1658,16.2993 4.9763,7.0835 8.7923,13.2927 8.4799,13.7982 -0.6213,1.0052 -18.5925,0.9582 -20.1246,-0.053 -0.5208,-0.3437 -5.1404,-6.9248 -10.2658,-14.6248 -5.1254,-7.7 -9.6542,-14.225 -10.0642,-14.5 -0.4099,-0.275 -6.4132,-0.6469 -13.3406,-0.8264 L 2203,1346.8472 v 14.9598 c 0,14.6685 -0.044,14.9715 -2.25,15.5627 -3.0601,0.8201 -16.255,0.792 -17.0833,-0.036 z m 51.4341,-47.4714 c 9.5327,-3.1917 13.2674,-8.8985 12.7342,-19.4585 -0.4415,-8.742 -2.2576,-11.7145 -9.407,-15.3972 -4.4502,-2.2923 -6.1661,-2.5351 -20.1043,-2.8451 l -15.2388,-0.339 -0.2925,19.1745 c -0.1608,10.546 -0.1049,19.361 0.1243,19.5889 0.9618,0.9568 29.0516,0.3252 32.1841,-0.7236 z m 52.6007,47.5063 C 2287.3157,1376.9824 2287,1354.0167 2287,1326.3333 V 1276 h 10.0092 10.0091 l -0.2591,50.75 -0.2592,50.75 -9.0485,0.2849 c -4.9766,0.1566 -9.3641,-0.031 -9.75,-0.4167 z m 45.0011,0 c -0.3864,-0.3864 -0.7026,-23.3526 -0.7026,-51.036 V 1276 l 8.25,0.061 8.25,0.061 11.0062,13.6893 c 6.0534,7.5291 17.9784,22.5428 26.5,33.3638 8.5216,10.821 15.8573,19.7085 16.3016,19.75 0.4444,0.041 0.7253,-15.112 0.6243,-33.6745 -0.101,-18.5625 0.098,-33.6375 0.4422,-33.5 0.3441,0.1375 4.6798,0.25 9.6349,0.25 h 9.0091 l -0.2591,50.75 -0.2592,50.75 h -7.5 c -9.139,0 -6.2132,2.7377 -34.1073,-31.9131 -11.5501,-14.3478 -22.6635,-28.1077 -24.6964,-30.5777 l -3.6963,-4.4907 -0.5,33.4907 -0.5,33.4908 -8.5474,0.286 c -4.701,0.1573 -8.8635,-0.03 -9.25,-0.4167 z M 422.24968,1197.9972 c -34.67347,-4.8599 -65.26049,-26.1764 -80.19307,-55.8876 -7.52985,-14.9821 -10.30528,-27.7176 -10.17321,-46.681 0.18594,-26.6975 8.98499,-48.5814 26.99237,-67.1322 C 379.90275,1006.6349 406.48522,996 439.60253,996 c 21.6045,0 37.34542,3.39805 53.68027,11.5882 11.56498,5.7985 16.39503,9.1616 25.2819,17.6033 19.34148,18.3725 30.42891,44.7197 30.42891,72.3085 0,38.6703 -21.24582,72.592 -56.51214,90.2289 -7.19309,3.5973 -16.34151,6.6568 -26.48147,8.8563 -8.71276,1.8898 -34.42113,2.7196 -43.75032,1.412 z m 39.17041,-42.8911 c 16.22567,-5.7978 28.76631,-18.1785 35.33183,-34.8811 2.42961,-6.1808 2.64775,-7.9388 2.6958,-21.725 0.0462,-13.2424 -0.22387,-15.7998 -2.3045,-21.8259 -2.64633,-7.6645 -10.05148,-19.3035 -15.81768,-24.8615 -17.07525,-16.4585 -45.95436,-20.3344 -69.21274,-9.289 -15.14208,7.1909 -28.25596,24.8106 -31.19137,41.9083 -1.64134,9.5603 -0.64987,25.3535 2.10735,33.5681 6.48207,19.312 20.92015,32.8131 41.17931,38.5068 7.91112,2.2234 29.32551,1.4173 37.212,-1.4007 z M 1006,1197.3664 c -11.96438,-1.8102 -21.75219,-4.4483 -32.3321,-8.7145 -8.76503,-3.5344 -21.52996,-10.5758 -23.52092,-12.9748 -0.94998,-1.1447 0.39227,-4.7542 6.74091,-18.1273 4.3599,-9.184 8.16752,-16.9385 8.46139,-17.2324 0.29387,-0.2939 4.498,1.722 9.34251,4.4797 11.80628,6.7207 19.34921,9.7594 31.57351,12.7194 19.9029,4.8194 40.5899,4.3002 51.7072,-1.2976 7.1528,-3.6015 10.0275,-7.8212 10.0275,-14.7189 0,-12.0164 -6.4969,-15.7765 -43,-24.8861 -27.3695,-6.8302 -37.81502,-10.3965 -47.87286,-16.3449 -22.72027,-13.4371 -30.53288,-41.8503 -18.45912,-67.1328 4.14345,-8.6764 14.5437,-19.7079 23.57077,-25.0015 29.75341,-17.44756 88.58151,-15.79035 121.43701,3.421 l 4.1758,2.4416 -4.0242,9.2514 c -3.5696,8.2064 -8.3485,19.9905 -10.1482,25.0239 -0.5693,1.5923 -1.4722,1.351 -8.8778,-2.3725 -15.3505,-7.718 -26.7999,-10.7748 -43.3014,-11.5608 -13.5165,-0.6437 -21.1049,0.4176 -29.0748,4.0663 -13.69239,6.2686 -15.4586,21.2641 -3.4572,29.3518 4.351,2.9321 18.6305,7.3296 36.532,11.2503 19.7841,4.3329 29.6003,7.425 40.4279,12.7346 23.8299,11.6856 34,32.4546 28.5586,58.3217 -3.5194,16.7308 -15.5034,31.08 -32.8981,39.391 -14.3685,6.8651 -29.3623,9.6006 -51.78,9.4469 -7.8696,-0.054 -18.5834,-0.745 -23.8084,-1.5355 z m 218,0.1586 c -29.8823,-5.0599 -56.411,-21.3584 -71.317,-43.8152 -5.4293,-8.1796 -11.3352,-21.0301 -13.8839,-30.2098 -1.915,-6.8975 -2.2219,-10.4807 -2.2264,-26 -0,-15.4028 0.3144,-19.2093 2.2095,-26.3809 2.7225,-10.303 9.5163,-24.7723 15.0809,-32.1191 6.0075,-7.9316 16.6783,-18.5299 23.7854,-23.6238 8.5723,-6.1441 23.505,-12.9974 35.0742,-16.09721 8.975,-2.40471 11.4595,-2.62622 30.2773,-2.69934 19.2223,-0.0747 21.1761,0.092 31.3476,2.67459 48.3752,12.28256 78.6524,50.26646 78.6524,98.67256 0,12.7131 -1.0811,19.4601 -5.068,31.628 -9.7792,29.846 -34.6229,54.0188 -65.5343,63.7647 -16.7239,5.2728 -41.5402,7.0599 -58.3977,4.2055 z m 36.9361,-41.1388 c 9.9993,-2.4583 17.6752,-6.9836 26.1853,-15.4371 12.9098,-12.8239 18.6832,-28.5628 17.449,-47.5672 -1.724,-26.5441 -18.0755,-47.4064 -43.1227,-55.0187 -9.0028,-2.7361 -27.7748,-2.4579 -36.4477,0.5402 -19.1531,6.621 -32.4135,20.3041 -38.5926,39.8228 -2.4664,7.7908 -2.9599,23.6927 -1.0077,32.4674 4.9332,22.174 21.3696,39.6225 42.6003,45.2237 7.5635,1.9955 24.7593,1.9792 32.9361,-0.031 z m 365.7926,41.1022 c -16.3763,-2.7532 -28.3416,-7.5878 -39.4547,-15.9417 -15.018,-11.2892 -24.9105,-27.3111 -29.3105,-47.4714 -1.7952,-8.225 -1.9377,-13.3912 -1.9785,-71.7194 l -0.044,-62.8559 h 23.7796 23.7795 v 60.5 c 0,55.5687 0.1489,61.0249 1.8266,66.94 6.0366,21.2828 19.0716,31.1747 41.0268,31.134 19.4319,-0.036 31.0835,-6.1357 38.0748,-19.9323 5.5003,-10.8543 5.5718,-11.8563 5.5718,-78.0541 v -61.1238 l 23.7329,0.2681 23.7329,0.2681 -0.2089,62.4448 c -0.2246,67.1377 -0.5057,71.3847 -5.6659,85.6009 -7.1706,19.7547 -23.0176,36.2042 -42.4332,44.0466 -17.0672,6.8937 -42.3132,9.2781 -62.4291,5.8961 z m 506.1533,0.5095 c -24.7879,-3.94 -42.8204,-12.4927 -59.3713,-28.1595 -20.2697,-19.187 -30.8947,-44.2755 -30.847,-72.8384 0.075,-44.7318 27.5079,-82.0183 70.2006,-95.4149 14.7277,-4.6215 24.7826,-5.85882 43.1357,-5.30815 18.1815,0.54553 28.8283,2.67496 43.0738,8.61505 20.7922,8.6699 40.1206,26.5112 49.951,46.108 20.5617,40.9893 11.5932,91.3865 -21.4208,120.3711 -13.9853,12.2784 -31.1151,20.9321 -49.104,24.8064 -10.268,2.2114 -36.5576,3.2605 -45.618,1.8204 z m 34.6579,-41.5158 c 10.1367,-2.5816 18.2457,-7.3249 26.4676,-15.4821 8.1592,-8.095 13.5427,-17.4364 16.1364,-28 1.6348,-6.6582 1.5716,-25.6965 -0.1062,-32 -4.2456,-15.9498 -16.3799,-31.1155 -30.441,-38.0455 -13.5542,-6.6803 -26.8067,-8.4113 -42.0568,-5.4935 -11.6864,2.236 -19.6976,6.6532 -29.0512,16.018 -12.7479,12.7633 -17.4887,24.469 -17.4887,43.1819 0,12.8151 1.2376,18.8987 5.7175,28.104 3.9593,8.1357 13.6507,19.3034 20.9437,24.1341 5.0648,3.3548 13.5814,6.823 19.8388,8.079 6.9623,1.3975 23.6898,1.1213 30.0399,-0.4959 z m 399.5924,40.9388 c -20.6242,-3.0034 -41.0811,-10.6414 -57.0538,-21.3021 -1.1641,-0.777 -0,-3.9967 6.4215,-17.7838 4.3136,-9.2592 8.2488,-17.3708 8.7447,-18.0257 0.6622,-0.8743 2.3961,-0.2348 6.5255,2.4067 3.0931,1.9786 9.7165,5.5362 14.7187,7.9058 23.4367,11.102 56.4388,13.5777 72.4066,5.4315 10.5289,-5.3715 13.0992,-16.4339 5.7604,-24.7924 -5.152,-5.8678 -10.876,-7.8944 -45.6559,-16.164 -9.075,-2.1578 -19.425,-4.9183 -23,-6.1346 -30.8485,-10.4952 -45.1762,-29.9997 -42.0765,-57.2795 1.1723,-10.3168 3.7379,-17.8272 8.5839,-25.128 13.1244,-19.7728 40.0583,-30.56562 76.236,-30.5489 22.7251,0.0105 40.4312,3.71966 58.5684,12.2691 9.8997,4.6666 10.7624,5.2931 10.2269,7.4269 -1.0214,4.0697 -13.6971,33.2981 -14.4406,33.2981 -0.392,0 -3.837,-1.5815 -7.6554,-3.5144 -8.8036,-4.4563 -22.7064,-8.9309 -32.7038,-10.5256 -10.4991,-1.6747 -28.4239,-0.757 -36.0856,1.8476 -12.0918,4.1105 -18.755,15.3304 -14.2483,23.9921 4.1746,8.0235 11.162,10.97 42.095,17.7509 27.9247,6.1215 40.461,10.6702 51.8463,18.8118 17.0081,12.1624 24.159,32.1433 19.1333,53.4614 -2.5751,10.9232 -6.0818,16.9759 -14.8844,25.691 -12.3325,12.2098 -24.5509,17.7718 -46.0952,20.9829 -12.1825,1.8158 -34.6213,1.7794 -47.3677,-0.077 z M 139.67245,1195.3391 C 139.3026,1194.9693 139,1150.6417 139,1096.8333 V 999 h 23.9897 23.98971 l 0.26029,44.6607 0.2603,44.6606 31.94895,-34.4106 c 17.57192,-18.9259 36.44487,-39.0232 41.93989,-44.6607 L 271.37979,999 h 26.39344 c 15.59533,0 26.25706,0.37549 26.0601,0.91781 -0.36459,1.00389 -16.21421,18.40059 -53.58046,58.81059 C 256.91379,1073.1541 246,1085.468 246,1086.0928 c 0,0.6247 5.53729,8.1719 12.30508,16.7715 46.53613,59.1319 71.69605,91.4647 71.69132,92.1298 -0.002,0.2783 -12.48948,0.5059 -27.75,0.5059 H 274.5 l -20,-25.1194 c -11,-13.8157 -24.67923,-31.0282 -30.39829,-38.25 C 218.38265,1124.9088 213.42163,1119 213.07722,1119 c -0.34441,0 -6.24017,5.9335 -13.10171,13.1855 L 187.5,1145.371 l -0.5,25.0645 -0.5,25.0645 -23.07755,0.2558 c -12.69266,0.1407 -23.38016,-0.047 -23.75,-0.4167 z M 595.25,1195.258 582,1194.9419 V 1096.971 999 l 50.25,0.006 c 54.49294,0.006 62.43743,0.57043 76.65365,5.4423 26.90693,9.2209 41.8262,26.7128 46.69233,54.7438 3.75712,21.6425 -2.89663,43.9969 -17.42975,58.5583 -8.00547,8.0211 -15.19801,12.467 -26.40502,16.3218 -14.45979,4.9736 -23.13333,5.9279 -53.87638,5.9279 h -27.85319 l -0.26582,27.6473 -0.26582,27.6472 -10.5,0.1398 c -5.775,0.077 -16.4625,-0 -23.75,-0.1763 z m 85.035,-94.2787 c 18.3172,-2.6486 28.66204,-15.3208 27.48458,-33.6681 -0.86665,-13.5042 -7.40497,-22.2579 -20.48727,-27.4289 -5.38126,-2.127 -7.56828,-2.3123 -31.53231,-2.671 L 630,1036.8259 V 1069.413 1102 l 21.75,-0.02 c 11.9625,-0.011 24.80325,-0.4613 28.535,-1.0009 z M 787.38948,1194.5 c -0.19991,-0.55 -0.25682,-44.65 -0.12648,-98 l 0.237,-97 h 24 24 l -0.16548,57 c -0.091,31.35 -0.20352,75.5455 -0.25,98.2122 l -0.0845,41.2123 -23.62353,-0.2123 c -14.64351,-0.1315 -23.76169,-0.5923 -23.98699,-1.2122 z m 602.07532,0.7596 -3.0352,-0.3543 0.035,-97.7026 0.035,-97.7027 23.7439,-0.26808 23.744,-0.26809 0.256,78.76807 0.2561,78.7681 50,0.5 50,0.5 -0.2499,19 -0.2498,19 -70.7502,0.057 c -38.9125,0.031 -72.1159,-0.1025 -73.7853,-0.2974 z m 433.952,-0.1763 C 1823.1876,1194.8542 1823,1159.423 1823,1116.3474 v -78.3193 l -31.75,-0.2641 -31.75,-0.264 -0.2716,-19.25 -0.2716,-19.25 H 1847 h 88.0432 l -0.2716,19.25 -0.2716,19.25 h -31.7444 -31.7444 l -0.2556,79 -0.2556,79 h -23.3332 c -12.8332,0 -23.5207,-0.1875 -23.75,-0.4167 z m 160.8332,0.1483 -23.25,-0.2685 V 1096.9816 999 h 24 24 v 97.941 c 0,53.8675 -0.3375,98.08 -0.75,98.25 -0.4125,0.1699 -11.2125,0.1882 -24,0.041 z m 309.1685,-0.1483 c -0.2302,-0.2291 -0.4185,-44.4416 -0.4185,-98.25 V 999 h 20.2578 20.2578 l 48.4922,58.1438 48.4922,58.1438 0.2581,-58.1438 0.258,-58.1438 h 23.492 H 2478 v 98 98 h -17.9182 c -9.855,0 -18.5841,0.2555 -19.3979,0.5678 -0.8264,0.3171 -2.4612,-0.4554 -3.7031,-1.75 -3.1439,-3.2774 -48.0943,-57.2093 -64.5231,-77.4154 -10.6951,-13.1542 -30.8434,-36.9186 -31.5456,-37.2073 -0.4079,-0.1677 -0.7652,25.8663 -0.7939,57.8533 l -0.052,58.1583 -23.1145,0.1467 c -12.713,0.081 -23.3029,-0.041 -23.533,-0.2701 z M 1214,514 c 0,-195.8 0.3395,-356 0.7544,-356 0.4149,0 19.9899,19.23944 43.5,42.75431 l 42.7456,42.75431 0.051,113.99569 0.051,113.99569 53.4318,-53.98165 53.4318,-53.98164 0.2673,54.48164 0.2672,54.48165 -46.9144,47.16832 -46.9144,47.16832 -6.7936,-7.16832 -6.7936,-7.16832 -0.059,115.5 -0.059,115.5 -42.916,43.25 C 1234.4468,850.5375 1214.8793,870 1214.5673,870 1214.2553,870 1214,709.8 1214,514 Z"
         id="path2" />
    </g>
  </g>
</svg>
